<svg xmlns="http://www.w3.org/2000/svg" xmlns:xlink="http://www.w3.org/1999/xlink" width="500" zoomAndPan="magnify" viewBox="0 0 375 374.999991" height="500" preserveAspectRatio="xMidYMid meet" version="1.0"><defs><g/><clipPath id="4d7026fa3b"><path d="M 6.25 103.492188 L 118.75 103.492188 L 118.75 215.992188 L 6.25 215.992188 Z M 6.25 103.492188 " clip-rule="nonzero"/></clipPath><clipPath id="3e879e863a"><path d="M 10.902344 110.671875 L 123.402344 110.671875 L 123.402344 223.171875 L 10.902344 223.171875 Z M 10.902344 110.671875 " clip-rule="nonzero"/></clipPath></defs><g fill="#0e101d" fill-opacity="1"><g transform="translate(125.121224, 155.881563)"><g><path d="M 14.226562 -14.664062 L 9.558594 -4.523438 L 4.9375 -14.664062 L 1.441406 -14.664062 L 1.441406 0 L 4.667969 0 L 4.667969 -8.75 L 8.628906 0 L 10.484375 0 L 14.46875 -8.726562 L 14.46875 0 L 17.695312 0 L 17.695312 -14.664062 Z M 14.226562 -14.664062 "/></g></g></g><g fill="#0e101d" fill-opacity="1"><g transform="translate(143.866593, 155.881563)"><g><path d="M 13.296875 0 L 8.238281 -7.578125 L 13.027344 -14.664062 L 9.335938 -14.664062 L 6.5 -10.214844 L 3.667969 -14.664062 L -0.0234375 -14.664062 L 4.765625 -7.550781 L -0.316406 0 L 3.398438 0 L 6.5 -4.914062 L 9.605469 0 Z M 13.296875 0 "/></g></g></g><g fill="#0e101d" fill-opacity="1"><g transform="translate(156.477537, 155.881563)"><g><path d="M 7.675781 -14.664062 L 1.441406 -14.664062 L 1.441406 0 L 4.667969 0 L 4.667969 -5.9375 L 7.675781 -5.9375 C 10.144531 -5.9375 12.050781 -7.773438 12.050781 -10.242188 C 12.050781 -12.683594 10.144531 -14.664062 7.675781 -14.664062 Z M 7.160156 -8.605469 L 4.667969 -8.605469 L 4.667969 -11.828125 L 7.160156 -11.828125 C 8.1875 -11.828125 8.96875 -11.167969 8.96875 -10.214844 C 8.96875 -9.238281 8.1875 -8.605469 7.160156 -8.605469 Z M 7.160156 -8.605469 "/></g></g></g><g fill="#0e101d" fill-opacity="1"><g transform="translate(168.233078, 155.881563)"><g><path d="M 8.433594 0.195312 C 12.613281 0.195312 15.960938 -3.175781 15.960938 -7.332031 C 15.960938 -11.488281 12.613281 -14.859375 8.433594 -14.859375 C 4.277344 -14.859375 0.90625 -11.488281 0.90625 -7.332031 C 0.90625 -3.175781 4.277344 0.195312 8.433594 0.195312 Z M 8.433594 -2.957031 C 5.964844 -2.957031 4.082031 -4.863281 4.082031 -7.332031 C 4.082031 -9.800781 5.964844 -11.707031 8.433594 -11.707031 C 10.925781 -11.707031 12.808594 -9.800781 12.808594 -7.332031 C 12.808594 -4.863281 10.925781 -2.957031 8.433594 -2.957031 Z M 8.433594 -2.957031 "/></g></g></g><g fill="#0e101d" fill-opacity="1"><g transform="translate(184.729975, 155.881563)"><g><path d="M 9.09375 -6.039062 C 10.828125 -6.550781 12.050781 -8.164062 12.050781 -10.167969 C 12.050781 -12.660156 10.191406 -14.664062 7.675781 -14.664062 L 1.441406 -14.664062 L 1.441406 0 L 4.667969 0 L 4.667969 -5.671875 L 5.964844 -5.671875 L 9.582031 0 L 13.199219 0 Z M 7.1875 -8.335938 L 4.667969 -8.335938 L 4.667969 -11.804688 L 7.1875 -11.804688 C 8.210938 -11.804688 8.96875 -11.070312 8.96875 -10.070312 C 8.96875 -9.042969 8.210938 -8.335938 7.1875 -8.335938 Z M 7.1875 -8.335938 "/></g></g></g><g fill="#0e101d" fill-opacity="1"><g transform="translate(197.414234, 155.881563)"><g><path d="M 10.484375 -14.664062 L -0.121094 -14.664062 L -0.121094 -11.804688 L 3.59375 -11.804688 L 3.59375 0 L 6.792969 0 L 6.792969 -11.804688 L 10.484375 -11.804688 Z M 10.484375 -14.664062 "/></g></g></g><g fill="#0e101d" fill-opacity="1"><g transform="translate(207.385659, 155.881563)"><g><path d="M 10.414062 0 L 13.859375 0 L 8.578125 -14.664062 L 4.960938 -14.664062 L -0.316406 0 L 3.128906 0 L 4.03125 -2.761719 L 9.507812 -2.761719 Z M 4.886719 -5.449219 L 6.769531 -11.269531 L 8.652344 -5.449219 Z M 4.886719 -5.449219 "/></g></g></g><g fill="#0e101d" fill-opacity="1"><g transform="translate(220.534282, 155.881563)"><g><path d="M 4.667969 -2.859375 L 4.667969 -14.664062 L 1.441406 -14.664062 L 1.441406 0 L 9.53125 0 L 9.53125 -2.859375 Z M 4.667969 -2.859375 "/></g></g></g><g fill="#0e101d" fill-opacity="1"><g transform="translate(229.723628, 155.881563)"><g><path d="M 7.675781 -14.664062 L 1.441406 -14.664062 L 1.441406 0 L 4.667969 0 L 4.667969 -5.9375 L 7.675781 -5.9375 C 10.144531 -5.9375 12.050781 -7.773438 12.050781 -10.242188 C 12.050781 -12.683594 10.144531 -14.664062 7.675781 -14.664062 Z M 7.160156 -8.605469 L 4.667969 -8.605469 L 4.667969 -11.828125 L 7.160156 -11.828125 C 8.1875 -11.828125 8.96875 -11.167969 8.96875 -10.214844 C 8.96875 -9.238281 8.1875 -8.605469 7.160156 -8.605469 Z M 7.160156 -8.605469 "/></g></g></g><g fill="#0e101d" fill-opacity="1"><g transform="translate(241.479171, 155.881563)"><g><path d="M 9.09375 -6.039062 C 10.828125 -6.550781 12.050781 -8.164062 12.050781 -10.167969 C 12.050781 -12.660156 10.191406 -14.664062 7.675781 -14.664062 L 1.441406 -14.664062 L 1.441406 0 L 4.667969 0 L 4.667969 -5.671875 L 5.964844 -5.671875 L 9.582031 0 L 13.199219 0 Z M 7.1875 -8.335938 L 4.667969 -8.335938 L 4.667969 -11.804688 L 7.1875 -11.804688 C 8.210938 -11.804688 8.96875 -11.070312 8.96875 -10.070312 C 8.96875 -9.042969 8.210938 -8.335938 7.1875 -8.335938 Z M 7.1875 -8.335938 "/></g></g></g><g fill="#0e101d" fill-opacity="1"><g transform="translate(254.163431, 155.881563)"><g><path d="M 8.433594 0.195312 C 12.613281 0.195312 15.960938 -3.175781 15.960938 -7.332031 C 15.960938 -11.488281 12.613281 -14.859375 8.433594 -14.859375 C 4.277344 -14.859375 0.90625 -11.488281 0.90625 -7.332031 C 0.90625 -3.175781 4.277344 0.195312 8.433594 0.195312 Z M 8.433594 -2.957031 C 5.964844 -2.957031 4.082031 -4.863281 4.082031 -7.332031 C 4.082031 -9.800781 5.964844 -11.707031 8.433594 -11.707031 C 10.925781 -11.707031 12.808594 -9.800781 12.808594 -7.332031 C 12.808594 -4.863281 10.925781 -2.957031 8.433594 -2.957031 Z M 8.433594 -2.957031 "/></g></g></g><g fill="#0e101d" fill-opacity="1"><g transform="translate(270.660331, 155.881563)"><g><path d="M 10.265625 -14.664062 L 6.769531 -4.179688 L 3.273438 -14.664062 L -0.316406 -14.664062 L 4.960938 0 L 8.578125 0 L 13.859375 -14.664062 Z M 10.265625 -14.664062 "/></g></g></g><g fill="#0e101d" fill-opacity="1"><g transform="translate(283.808955, 155.881563)"><g><path d="M 10.386719 -11.828125 L 10.386719 -14.664062 L 1.5625 -14.664062 L 1.5625 0 L 10.386719 0 L 10.386719 -2.835938 L 4.789062 -2.835938 L 4.789062 -5.914062 L 9.582031 -5.914062 L 9.582031 -8.75 L 4.789062 -8.75 L 4.789062 -11.828125 Z M 10.386719 -11.828125 "/></g></g></g><g fill="#0e101d" fill-opacity="1"><g transform="translate(294.806861, 155.881563)"><g><path d="M 10.386719 -11.828125 L 10.386719 -14.664062 L 1.5625 -14.664062 L 1.5625 0 L 10.386719 0 L 10.386719 -2.835938 L 4.789062 -2.835938 L 4.789062 -5.914062 L 9.582031 -5.914062 L 9.582031 -8.75 L 4.789062 -8.75 L 4.789062 -11.828125 Z M 10.386719 -11.828125 "/></g></g></g><g fill="#0e101d" fill-opacity="1"><g transform="translate(305.804767, 155.881563)"><g><path d="M 1.441406 0 L 6.28125 0 C 10.316406 0 13.613281 -3.273438 13.613281 -7.332031 C 13.613281 -11.390625 10.316406 -14.664062 6.28125 -14.664062 L 1.441406 -14.664062 Z M 4.667969 -2.859375 L 4.667969 -11.804688 L 6.257812 -11.804688 C 8.578125 -11.804688 10.386719 -9.875 10.386719 -7.332031 C 10.386719 -4.789062 8.578125 -2.859375 6.257812 -2.859375 Z M 4.667969 -2.859375 "/></g></g></g><g fill="#0e101d" fill-opacity="1"><g transform="translate(319.930989, 155.881563)"><g><path d="M 8.433594 0.195312 C 12.613281 0.195312 15.960938 -3.175781 15.960938 -7.332031 C 15.960938 -11.488281 12.613281 -14.859375 8.433594 -14.859375 C 4.277344 -14.859375 0.90625 -11.488281 0.90625 -7.332031 C 0.90625 -3.175781 4.277344 0.195312 8.433594 0.195312 Z M 8.433594 -2.957031 C 5.964844 -2.957031 4.082031 -4.863281 4.082031 -7.332031 C 4.082031 -9.800781 5.964844 -11.707031 8.433594 -11.707031 C 10.925781 -11.707031 12.808594 -9.800781 12.808594 -7.332031 C 12.808594 -4.863281 10.925781 -2.957031 8.433594 -2.957031 Z M 8.433594 -2.957031 "/></g></g></g><g fill="#0e101d" fill-opacity="1"><g transform="translate(336.427877, 155.881563)"><g><path d="M 9.09375 -6.039062 C 10.828125 -6.550781 12.050781 -8.164062 12.050781 -10.167969 C 12.050781 -12.660156 10.191406 -14.664062 7.675781 -14.664062 L 1.441406 -14.664062 L 1.441406 0 L 4.667969 0 L 4.667969 -5.671875 L 5.964844 -5.671875 L 9.582031 0 L 13.199219 0 Z M 7.1875 -8.335938 L 4.667969 -8.335938 L 4.667969 -11.804688 L 7.1875 -11.804688 C 8.210938 -11.804688 8.96875 -11.070312 8.96875 -10.070312 C 8.96875 -9.042969 8.210938 -8.335938 7.1875 -8.335938 Z M 7.1875 -8.335938 "/></g></g></g><g fill="#0e101d" fill-opacity="1"><g transform="translate(349.112125, 155.881563)"><g><path d="M 10.386719 -11.828125 L 10.386719 -14.664062 L 1.5625 -14.664062 L 1.5625 0 L 10.386719 0 L 10.386719 -2.835938 L 4.789062 -2.835938 L 4.789062 -5.914062 L 9.582031 -5.914062 L 9.582031 -8.75 L 4.789062 -8.75 L 4.789062 -11.828125 Z M 10.386719 -11.828125 "/></g></g></g><g fill="#0e101d" fill-opacity="1"><g transform="translate(360.110019, 155.881563)"><g><path d="M 5.964844 0.195312 C 8.703125 0.195312 11.023438 -1.417969 11.023438 -4.15625 C 11.023438 -9.582031 4.277344 -8.238281 4.277344 -10.777344 C 4.277344 -11.609375 4.914062 -12 5.695312 -12 C 6.527344 -12 7.355469 -11.535156 8.089844 -10.730469 L 10.242188 -12.78125 C 9.164062 -14.03125 7.527344 -14.859375 5.71875 -14.859375 C 3.398438 -14.859375 1.027344 -13.46875 1.027344 -10.535156 C 1.027344 -5.546875 7.796875 -6.746094 7.796875 -4.179688 C 7.796875 -3.371094 7.113281 -2.835938 5.988281 -2.835938 C 4.644531 -2.835938 3.59375 -3.59375 3.054688 -4.742188 L 0.390625 -3.078125 C 1.34375 -1.246094 3.398438 0.195312 5.964844 0.195312 Z M 5.964844 0.195312 "/></g></g></g><g fill="#0e101d" fill-opacity="1"><g transform="translate(219.841782, 174.40834)"><g><path d="M 3.300781 0.195312 C 4.277344 0.195312 5.109375 -0.609375 5.109375 -1.589844 C 5.109375 -2.566406 4.277344 -3.371094 3.300781 -3.371094 C 2.347656 -3.371094 1.539062 -2.566406 1.539062 -1.589844 C 1.539062 -0.609375 2.347656 0.195312 3.300781 0.195312 Z M 3.300781 0.195312 "/></g></g></g><g fill="#0e101d" fill-opacity="1"><g transform="translate(226.073887, 174.40834)"><g><path d="M 8.433594 0.195312 C 11.339844 0.195312 13.859375 -1.441406 15.105469 -3.835938 L 12.320312 -5.28125 C 11.609375 -3.886719 10.167969 -2.957031 8.433594 -2.957031 C 5.964844 -2.957031 4.082031 -4.863281 4.082031 -7.332031 C 4.082031 -9.800781 5.964844 -11.707031 8.433594 -11.707031 C 10.167969 -11.707031 11.609375 -10.777344 12.320312 -9.386719 L 15.105469 -10.828125 C 13.859375 -13.222656 11.339844 -14.859375 8.433594 -14.859375 C 4.277344 -14.859375 0.90625 -11.488281 0.90625 -7.332031 C 0.90625 -3.175781 4.277344 0.195312 8.433594 0.195312 Z M 8.433594 0.195312 "/></g></g></g><g fill="#0e101d" fill-opacity="1"><g transform="translate(241.422108, 174.40834)"><g><path d="M 8.433594 0.195312 C 12.613281 0.195312 15.960938 -3.175781 15.960938 -7.332031 C 15.960938 -11.488281 12.613281 -14.859375 8.433594 -14.859375 C 4.277344 -14.859375 0.90625 -11.488281 0.90625 -7.332031 C 0.90625 -3.175781 4.277344 0.195312 8.433594 0.195312 Z M 8.433594 -2.957031 C 5.964844 -2.957031 4.082031 -4.863281 4.082031 -7.332031 C 4.082031 -9.800781 5.964844 -11.707031 8.433594 -11.707031 C 10.925781 -11.707031 12.808594 -9.800781 12.808594 -7.332031 C 12.808594 -4.863281 10.925781 -2.957031 8.433594 -2.957031 Z M 8.433594 -2.957031 "/></g></g></g><g fill="#0e101d" fill-opacity="1"><g transform="translate(257.919005, 174.40834)"><g><path d="M 14.226562 -14.664062 L 9.558594 -4.523438 L 4.9375 -14.664062 L 1.441406 -14.664062 L 1.441406 0 L 4.667969 0 L 4.667969 -8.75 L 8.628906 0 L 10.484375 0 L 14.46875 -8.726562 L 14.46875 0 L 17.695312 0 L 17.695312 -14.664062 Z M 14.226562 -14.664062 "/></g></g></g><g clip-path="url(#4d7026fa3b)"><path fill="#ffffff" d="M 6.25 103.492188 L 118.75 103.492188 L 118.75 215.992188 L 6.25 215.992188 Z M 6.25 103.492188 " fill-opacity="1" fill-rule="nonzero"/></g><g clip-path="url(#3e879e863a)"><path fill="#3f6db4" d="M 10.902344 110.671875 L 123.402344 110.671875 L 123.402344 223.171875 L 10.902344 223.171875 Z M 10.902344 110.671875 " fill-opacity="1" fill-rule="nonzero"/></g><g fill="#3f6db4" fill-opacity="1"><g transform="translate(130.626345, 193.837619)"><g><path d="M 6.46875 0.148438 C 8.699219 0.148438 10.632812 -1.105469 11.585938 -2.945312 L 9.449219 -4.050781 C 8.90625 -2.980469 7.800781 -2.269531 6.46875 -2.269531 C 4.574219 -2.269531 3.132812 -3.730469 3.132812 -5.625 C 3.132812 -7.519531 4.574219 -8.980469 6.46875 -8.980469 C 7.800781 -8.980469 8.90625 -8.269531 9.449219 -7.199219 L 11.585938 -8.304688 C 10.632812 -10.144531 8.699219 -11.398438 6.46875 -11.398438 C 3.28125 -11.398438 0.695312 -8.8125 0.695312 -5.625 C 0.695312 -2.4375 3.28125 0.148438 6.46875 0.148438 Z M 6.46875 0.148438 "/></g></g></g><g fill="#3f6db4" fill-opacity="1"><g transform="translate(142.401395, 193.837619)"><g><path d="M 4.460938 0.148438 C 6.730469 0.148438 7.988281 -1.03125 7.988281 -2.867188 L 7.988281 -7.5 L 5.605469 -7.5 L 5.605469 -3.1875 C 5.605469 -2.476562 5.117188 -1.96875 4.460938 -1.96875 C 3.824219 -1.96875 3.335938 -2.476562 3.335938 -3.1875 L 3.335938 -7.5 L 0.9375 -7.5 L 0.9375 -2.867188 C 0.9375 -1.03125 2.195312 0.148438 4.460938 0.148438 Z M 4.460938 0.148438 "/></g></g></g><g fill="#3f6db4" fill-opacity="1"><g transform="translate(151.045182, 193.837619)"><g><path d="M 8.738281 -3.769531 C 8.738281 -6.113281 7.125 -7.667969 4.707031 -7.667969 C 2.289062 -7.667969 0.582031 -6.09375 0.582031 -3.75 C 0.582031 -1.40625 2.269531 0.148438 4.78125 0.148438 C 6.863281 0.148438 8.25 -0.957031 8.625 -2.585938 L 6.320312 -2.585938 C 6.113281 -1.988281 5.570312 -1.632812 4.742188 -1.632812 C 3.65625 -1.632812 3.09375 -2.289062 3 -3.355469 L 8.738281 -3.355469 Z M 4.742188 -5.832031 C 5.550781 -5.832031 6.019531 -5.457031 6.261719 -4.800781 L 3.148438 -4.800781 C 3.394531 -5.4375 3.898438 -5.832031 4.742188 -5.832031 Z M 4.742188 -5.832031 "/></g></g></g><g fill="#3f6db4" fill-opacity="1"><g transform="translate(160.045224, 193.837619)"><g><path d="M 5.644531 -7.648438 C 4.78125 -7.648438 4.03125 -7.238281 3.507812 -6.582031 L 3.507812 -7.5 L 1.105469 -7.5 L 1.105469 0 L 3.507812 0 L 3.507812 -4.351562 C 3.507812 -5.023438 4.070312 -5.53125 4.761719 -5.53125 C 5.457031 -5.53125 5.945312 -5.023438 5.945312 -4.351562 L 5.945312 0 L 8.324219 0 L 8.324219 -4.742188 C 8.324219 -6.394531 7.125 -7.648438 5.644531 -7.648438 Z M 5.644531 -7.648438 "/></g></g></g><g fill="#3f6db4" fill-opacity="1"><g transform="translate(169.026507, 193.837619)"><g><path d="M 5.625 -5.644531 L 5.625 -7.5 L 3.84375 -7.5 L 3.84375 -10.386719 L 1.460938 -10.386719 L 1.460938 -7.5 L 0.207031 -7.5 L 0.207031 -5.644531 L 1.460938 -5.644531 L 1.460938 -2.679688 C 1.460938 -1.085938 2.8125 0.148438 4.40625 0.148438 C 4.914062 0.148438 5.417969 0.0390625 5.605469 -0.09375 L 5.605469 -1.949219 L 4.707031 -1.949219 C 4.199219 -1.949219 3.84375 -2.34375 3.84375 -2.960938 L 3.84375 -5.644531 Z M 5.625 -5.644531 "/></g></g></g><g fill="#3f6db4" fill-opacity="1"><g transform="translate(174.726528, 193.837619)"><g><path d="M 9.46875 -1.949219 C 9.148438 -1.949219 8.8125 -2.0625 8.8125 -2.679688 L 8.8125 -7.5 L 6.429688 -7.5 L 6.429688 -6.84375 C 5.867188 -7.351562 5.15625 -7.648438 4.292969 -7.648438 C 2.210938 -7.648438 0.582031 -5.925781 0.582031 -3.75 C 0.582031 -1.574219 2.210938 0.148438 4.292969 0.148438 C 5.382812 0.148438 6.261719 -0.335938 6.863281 -1.125 C 7.332031 -0.355469 8.15625 0.148438 9.167969 0.148438 C 9.414062 0.148438 9.636719 0.0742188 9.804688 0 L 9.804688 -1.949219 Z M 4.761719 -1.96875 C 3.769531 -1.96875 2.980469 -2.757812 2.980469 -3.75 C 2.980469 -4.742188 3.769531 -5.53125 4.761719 -5.53125 C 5.738281 -5.53125 6.542969 -4.742188 6.542969 -3.75 C 6.542969 -2.757812 5.738281 -1.96875 4.761719 -1.96875 Z M 4.761719 -1.96875 "/></g></g></g><g fill="#3f6db4" fill-opacity="1"><g transform="translate(184.51407, 193.837619)"><g><path d="M 3.523438 0.148438 C 5.210938 0.148438 6.242188 -0.882812 6.242188 -2.289062 C 6.242188 -3.789062 5.007812 -4.386719 3.9375 -4.800781 C 3.394531 -5.023438 3.132812 -5.136719 3.132812 -5.417969 C 3.132812 -5.664062 3.320312 -5.851562 3.730469 -5.851562 C 4.21875 -5.851562 4.667969 -5.585938 4.894531 -5.304688 L 6.09375 -6.65625 C 5.53125 -7.21875 4.613281 -7.648438 3.5625 -7.648438 C 1.855469 -7.648438 0.769531 -6.523438 0.769531 -5.25 C 0.769531 -3.75 2.269531 -3.242188 3.132812 -2.925781 C 3.804688 -2.664062 4.03125 -2.476562 4.03125 -2.210938 C 4.03125 -1.914062 3.769531 -1.742188 3.375 -1.742188 C 2.980469 -1.742188 2.457031 -1.894531 2.117188 -2.53125 L 0.355469 -1.648438 C 0.804688 -0.488281 2.195312 0.148438 3.523438 0.148438 Z M 3.523438 0.148438 "/></g></g></g><g fill="#3f6db4" fill-opacity="1"><g transform="translate(190.814093, 193.837619)"><g/></g></g><g fill="#3f6db4" fill-opacity="1"><g transform="translate(195.014115, 193.837619)"><g><path d="M 5.644531 -7.648438 C 4.78125 -7.648438 4.070312 -7.351562 3.507812 -6.84375 L 3.507812 -7.480469 L 1.105469 -7.5 L 1.105469 4.5 L 3.507812 4.519531 L 3.507812 -0.65625 C 4.070312 -0.148438 4.78125 0.148438 5.644531 0.148438 C 7.707031 0.148438 9.335938 -1.574219 9.335938 -3.75 C 9.335938 -5.925781 7.707031 -7.648438 5.644531 -7.648438 Z M 5.175781 -1.96875 C 4.179688 -1.96875 3.394531 -2.757812 3.394531 -3.75 C 3.394531 -4.742188 4.179688 -5.53125 5.175781 -5.53125 C 6.167969 -5.53125 6.957031 -4.742188 6.957031 -3.75 C 6.957031 -2.757812 6.167969 -1.96875 5.175781 -1.96875 Z M 5.175781 -1.96875 "/></g></g></g><g fill="#3f6db4" fill-opacity="1"><g transform="translate(204.632902, 193.837619)"><g><path d="M 4.761719 0.148438 C 7.273438 0.148438 8.925781 -1.5 8.925781 -3.75 C 8.925781 -6 7.273438 -7.648438 4.761719 -7.648438 C 2.25 -7.648438 0.582031 -6 0.582031 -3.75 C 0.582031 -1.5 2.25 0.148438 4.761719 0.148438 Z M 4.761719 -1.96875 C 3.730469 -1.988281 2.980469 -2.738281 2.980469 -3.75 C 2.980469 -4.761719 3.730469 -5.511719 4.761719 -5.53125 C 5.773438 -5.511719 6.542969 -4.761719 6.542969 -3.75 C 6.542969 -2.738281 5.773438 -1.988281 4.761719 -1.96875 Z M 4.761719 -1.96875 "/></g></g></g><g fill="#3f6db4" fill-opacity="1"><g transform="translate(213.857932, 193.837619)"><g><path d="M 5.605469 -7.648438 C 4.726562 -7.648438 3.992188 -7.199219 3.507812 -6.46875 L 3.507812 -7.5 L 1.105469 -7.5 L 1.105469 0 L 3.507812 0 L 3.507812 -3.582031 C 3.507812 -4.820312 4.351562 -5.53125 5.53125 -5.53125 C 5.8125 -5.53125 6.054688 -5.492188 6.226562 -5.457031 L 6.226562 -7.574219 C 6.054688 -7.632812 5.832031 -7.648438 5.605469 -7.648438 Z M 5.605469 -7.648438 "/></g></g></g><g fill="#3f6db4" fill-opacity="1"><g transform="translate(219.745454, 193.837619)"><g/></g></g><g fill="#3f6db4" fill-opacity="1"><g transform="translate(223.945475, 193.837619)"><g><path d="M 5.644531 -7.648438 C 4.78125 -7.648438 4.070312 -7.351562 3.507812 -6.84375 L 3.507812 -7.480469 L 1.105469 -7.5 L 1.105469 4.5 L 3.507812 4.519531 L 3.507812 -0.65625 C 4.070312 -0.148438 4.78125 0.148438 5.644531 0.148438 C 7.707031 0.148438 9.335938 -1.574219 9.335938 -3.75 C 9.335938 -5.925781 7.707031 -7.648438 5.644531 -7.648438 Z M 5.175781 -1.96875 C 4.179688 -1.96875 3.394531 -2.757812 3.394531 -3.75 C 3.394531 -4.742188 4.179688 -5.53125 5.175781 -5.53125 C 6.167969 -5.53125 6.957031 -4.742188 6.957031 -3.75 C 6.957031 -2.757812 6.167969 -1.96875 5.175781 -1.96875 Z M 5.175781 -1.96875 "/></g></g></g><g fill="#3f6db4" fill-opacity="1"><g transform="translate(233.564262, 193.837619)"><g><path d="M 9.46875 -1.949219 C 9.148438 -1.949219 8.8125 -2.0625 8.8125 -2.679688 L 8.8125 -7.5 L 6.429688 -7.5 L 6.429688 -6.84375 C 5.867188 -7.351562 5.15625 -7.648438 4.292969 -7.648438 C 2.210938 -7.648438 0.582031 -5.925781 0.582031 -3.75 C 0.582031 -1.574219 2.210938 0.148438 4.292969 0.148438 C 5.382812 0.148438 6.261719 -0.335938 6.863281 -1.125 C 7.332031 -0.355469 8.15625 0.148438 9.167969 0.148438 C 9.414062 0.148438 9.636719 0.0742188 9.804688 0 L 9.804688 -1.949219 Z M 4.761719 -1.96875 C 3.769531 -1.96875 2.980469 -2.757812 2.980469 -3.75 C 2.980469 -4.742188 3.769531 -5.53125 4.761719 -5.53125 C 5.738281 -5.53125 6.542969 -4.742188 6.542969 -3.75 C 6.542969 -2.757812 5.738281 -1.96875 4.761719 -1.96875 Z M 4.761719 -1.96875 "/></g></g></g><g fill="#3f6db4" fill-opacity="1"><g transform="translate(243.35181, 193.837619)"><g><path d="M 9.039062 -7.5 L 6.636719 -7.5 L 6.636719 -6.75 C 6.019531 -7.3125 5.210938 -7.648438 4.292969 -7.648438 C 2.210938 -7.648438 0.582031 -5.945312 0.582031 -3.75 C 0.582031 -1.574219 2.210938 0.148438 4.292969 0.148438 C 5.230469 0.148438 6.054688 -0.207031 6.675781 -0.789062 L 6.675781 0.207031 C 6.675781 1.59375 5.90625 2.4375 4.6875 2.4375 C 3.824219 2.4375 3.167969 1.96875 2.886719 1.21875 L 0.695312 2.101562 C 1.3125 3.636719 2.71875 4.519531 4.6875 4.519531 C 7.425781 4.519531 9.054688 2.851562 9.054688 0.0742188 Z M 4.894531 -1.96875 C 3.898438 -1.96875 3.113281 -2.757812 3.113281 -3.75 C 3.113281 -4.742188 3.898438 -5.53125 4.894531 -5.53125 C 5.886719 -5.53125 6.695312 -4.742188 6.695312 -3.75 C 6.695312 -2.757812 5.886719 -1.96875 4.894531 -1.96875 Z M 4.894531 -1.96875 "/></g></g></g><g fill="#3f6db4" fill-opacity="1"><g transform="translate(253.233107, 193.837619)"><g><path d="M 9.46875 -1.949219 C 9.148438 -1.949219 8.8125 -2.0625 8.8125 -2.679688 L 8.8125 -7.5 L 6.429688 -7.5 L 6.429688 -6.84375 C 5.867188 -7.351562 5.15625 -7.648438 4.292969 -7.648438 C 2.210938 -7.648438 0.582031 -5.925781 0.582031 -3.75 C 0.582031 -1.574219 2.210938 0.148438 4.292969 0.148438 C 5.382812 0.148438 6.261719 -0.335938 6.863281 -1.125 C 7.332031 -0.355469 8.15625 0.148438 9.167969 0.148438 C 9.414062 0.148438 9.636719 0.0742188 9.804688 0 L 9.804688 -1.949219 Z M 4.761719 -1.96875 C 3.769531 -1.96875 2.980469 -2.757812 2.980469 -3.75 C 2.980469 -4.742188 3.769531 -5.53125 4.761719 -5.53125 C 5.738281 -5.53125 6.542969 -4.742188 6.542969 -3.75 C 6.542969 -2.757812 5.738281 -1.96875 4.761719 -1.96875 Z M 4.761719 -1.96875 "/></g></g></g><g fill="#3f6db4" fill-opacity="1"><g transform="translate(263.020654, 193.837619)"><g><path d="M 5.605469 -7.648438 C 4.726562 -7.648438 3.992188 -7.199219 3.507812 -6.46875 L 3.507812 -7.5 L 1.105469 -7.5 L 1.105469 0 L 3.507812 0 L 3.507812 -3.582031 C 3.507812 -4.820312 4.351562 -5.53125 5.53125 -5.53125 C 5.8125 -5.53125 6.054688 -5.492188 6.226562 -5.457031 L 6.226562 -7.574219 C 6.054688 -7.632812 5.832031 -7.648438 5.605469 -7.648438 Z M 5.605469 -7.648438 "/></g></g></g></svg>